# .PCD v0.7 - Point Cloud Data file format
VERSION 0.7
FIELDS x y z
SIZE 4 4 4
TYPE F F F
COUNT 1 1 1
WIDTH 1648
HEIGHT 1
VIEWPOINT 0 0 0 1 0 0 0
POINTS 1648
DATA ascii
2.500000 0.500000 0.000000
2.490033 0.599335 0.000000
2.460530 0.694709 0.000000
2.412668 0.782321 0.000000
2.348353 0.858678 0.000000
2.270151 0.920735 0.000000
2.181179 0.966020 0.000000
2.084984 0.992725 0.000000
1.985400 0.999787 0.000000
1.886399 0.986924 0.000000
1.791927 0.954649 0.000000
1.705749 0.904248 0.000000
1.631303 0.837732 0.000000
1.571556 0.757751 0.000000
1.528889 0.667494 0.000000
1.505004 0.570560 0.000000
1.500853 0.470813 0.000000
1.516601 0.372229 0.000000
1.551621 0.278740 0.000000
1.604516 0.194071 0.000000
1.673178 0.121599 0.000000
1.754870 0.064212 0.000000
1.846334 0.024199 0.000000
1.943924 0.003154 0.000000
2.043749 0.001918 0.000000
2.141831 0.020538 0.000000
2.234258 0.058273 0.000000
2.317346 0.113618 0.000000
2.387783 0.184367 0.000000
2.442760 0.267699 0.000000
2.480085 0.360292 0.000000
2.498271 0.458455 0.000000
2.500000 0.500000 0.100000
2.490033 0.599335 0.100000
2.460530 0.694709 0.100000
2.412668 0.782321 0.100000
2.348353 0.858678 0.100000
2.270151 0.920735 0.100000
2.181179 0.966020 0.100000
2.084984 0.992725 0.100000
1.985400 0.999787 0.100000
1.886399 0.986924 0.100000
1.791927 0.954649 0.100000
1.705749 0.904248 0.100000
1.631303 0.837732 0.100000
1.571556 0.757751 0.100000
1.528889 0.667494 0.100000
1.505004 0.570560 0.100000
1.500853 0.470813 0.100000
1.516601 0.372229 0.100000
1.551621 0.278740 0.100000
1.604516 0.194071 0.100000
1.673178 0.121599 0.100000
1.754870 0.064212 0.100000
1.846334 0.024199 0.100000
1.943924 0.003154 0.100000
2.043749 0.001918 0.100000
2.141831 0.020538 0.100000
2.234258 0.058273 0.100000
2.317346 0.113618 0.100000
2.387783 0.184367 0.100000
2.442760 0.267699 0.100000
2.480085 0.360292 0.100000
2.498271 0.458455 0.100000
2.500000 0.500000 0.200000
2.490033 0.599335 0.200000
2.460530 0.694709 0.200000
2.412668 0.782321 0.200000
2.348353 0.858678 0.200000
2.270151 0.920735 0.200000
2.181179 0.966020 0.200000
2.084984 0.992725 0.200000
1.985400 0.999787 0.200000
1.886399 0.986924 0.200000
1.791927 0.954649 0.200000
1.705749 0.904248 0.200000
1.631303 0.837732 0.200000
1.571556 0.757751 0.200000
1.528889 0.667494 0.200000
1.505004 0.570560 0.200000
1.500853 0.470813 0.200000
1.516601 0.372229 0.200000
1.551621 0.278740 0.200000
1.604516 0.194071 0.200000
1.673178 0.121599 0.200000
1.754870 0.064212 0.200000
1.846334 0.024199 0.200000
1.943924 0.003154 0.200000
2.043749 0.001918 0.200000
2.141831 0.020538 0.200000
2.234258 0.058273 0.200000
2.317346 0.113618 0.200000
2.387783 0.184367 0.200000
2.442760 0.267699 0.200000
2.480085 0.360292 0.200000
2.498271 0.458455 0.200000
2.500000 0.500000 0.300000
2.490033 0.599335 0.300000
2.460530 0.694709 0.300000
2.412668 0.782321 0.300000
2.348353 0.858678 0.300000
2.270151 0.920735 0.300000
2.181179 0.966020 0.300000
2.084984 0.992725 0.300000
1.985400 0.999787 0.300000
1.886399 0.986924 0.300000
1.791927 0.954649 0.300000
1.705749 0.904248 0.300000
1.631303 0.837732 0.300000
1.571556 0.757751 0.300000
1.528889 0.667494 0.300000
1.505004 0.570560 0.300000
1.500853 0.470813 0.300000
1.516601 0.372229 0.300000
1.551621 0.278740 0.300000
1.604516 0.194071 0.300000
1.673178 0.121599 0.300000
1.754870 0.064212 0.300000
1.846334 0.024199 0.300000
1.943924 0.003154 0.300000
2.043749 0.001918 0.300000
2.141831 0.020538 0.300000
2.234258 0.058273 0.300000
2.317346 0.113618 0.300000
2.387783 0.184367 0.300000
2.442760 0.267699 0.300000
2.480085 0.360292 0.300000
2.498271 0.458455 0.300000
2.500000 0.500000 0.400000
2.490033 0.599335 0.400000
2.460530 0.694709 0.400000
2.412668 0.782321 0.400000
2.348353 0.858678 0.400000
2.270151 0.920735 0.400000
2.181179 0.966020 0.400000
2.084984 0.992725 0.400000
1.985400 0.999787 0.400000
1.886399 0.986924 0.400000
1.791927 0.954649 0.400000
1.705749 0.904248 0.400000
1.631303 0.837732 0.400000
1.571556 0.757751 0.400000
1.528889 0.667494 0.400000
1.505004 0.570560 0.400000
1.500853 0.470813 0.400000
1.516601 0.372229 0.400000
1.551621 0.278740 0.400000
1.604516 0.194071 0.400000
1.673178 0.121599 0.400000
1.754870 0.064212 0.400000
1.846334 0.024199 0.400000
1.943924 0.003154 0.400000
2.043749 0.001918 0.400000
2.141831 0.020538 0.400000
2.234258 0.058273 0.400000
2.317346 0.113618 0.400000
2.387783 0.184367 0.400000
2.442760 0.267699 0.400000
2.480085 0.360292 0.400000
2.498271 0.458455 0.400000
2.500000 0.500000 0.500000
2.490033 0.599335 0.500000
2.460530 0.694709 0.500000
2.412668 0.782321 0.500000
2.348353 0.858678 0.500000
2.270151 0.920735 0.500000
2.181179 0.966020 0.500000
2.084984 0.992725 0.500000
1.985400 0.999787 0.500000
1.886399 0.986924 0.500000
1.791927 0.954649 0.500000
1.705749 0.904248 0.500000
1.631303 0.837732 0.500000
1.571556 0.757751 0.500000
1.528889 0.667494 0.500000
1.505004 0.570560 0.500000
1.500853 0.470813 0.500000
1.516601 0.372229 0.500000
1.551621 0.278740 0.500000
1.604516 0.194071 0.500000
1.673178 0.121599 0.500000
1.754870 0.064212 0.500000
1.846334 0.024199 0.500000
1.943924 0.003154 0.500000
2.043749 0.001918 0.500000
2.141831 0.020538 0.500000
2.234258 0.058273 0.500000
2.317346 0.113618 0.500000
2.387783 0.184367 0.500000
2.442760 0.267699 0.500000
2.480085 0.360292 0.500000
2.498271 0.458455 0.500000
2.500000 0.500000 0.600000
2.490033 0.599335 0.600000
2.460530 0.694709 0.600000
2.412668 0.782321 0.600000
2.348353 0.858678 0.600000
2.270151 0.920735 0.600000
2.181179 0.966020 0.600000
2.084984 0.992725 0.600000
1.985400 0.999787 0.600000
1.886399 0.986924 0.600000
1.791927 0.954649 0.600000
1.705749 0.904248 0.600000
1.631303 0.837732 0.600000
1.571556 0.757751 0.600000
1.528889 0.667494 0.600000
1.505004 0.570560 0.600000
1.500853 0.470813 0.600000
1.516601 0.372229 0.600000
1.551621 0.278740 0.600000
1.604516 0.194071 0.600000
1.673178 0.121599 0.600000
1.754870 0.064212 0.600000
1.846334 0.024199 0.600000
1.943924 0.003154 0.600000
2.043749 0.001918 0.600000
2.141831 0.020538 0.600000
2.234258 0.058273 0.600000
2.317346 0.113618 0.600000
2.387783 0.184367 0.600000
2.442760 0.267699 0.600000
2.480085 0.360292 0.600000
2.498271 0.458455 0.600000
2.500000 0.500000 0.700000
2.490033 0.599335 0.700000
2.460530 0.694709 0.700000
2.412668 0.782321 0.700000
2.348353 0.858678 0.700000
2.270151 0.920735 0.700000
2.181179 0.966020 0.700000
2.084984 0.992725 0.700000
1.985400 0.999787 0.700000
1.886399 0.986924 0.700000
1.791927 0.954649 0.700000
1.705749 0.904248 0.700000
1.631303 0.837732 0.700000
1.571556 0.757751 0.700000
1.528889 0.667494 0.700000
1.505004 0.570560 0.700000
1.500853 0.470813 0.700000
1.516601 0.372229 0.700000
1.551621 0.278740 0.700000
1.604516 0.194071 0.700000
1.673178 0.121599 0.700000
1.754870 0.064212 0.700000
1.846334 0.024199 0.700000
1.943924 0.003154 0.700000
2.043749 0.001918 0.700000
2.141831 0.020538 0.700000
2.234258 0.058273 0.700000
2.317346 0.113618 0.700000
2.387783 0.184367 0.700000
2.442760 0.267699 0.700000
2.480085 0.360292 0.700000
2.498271 0.458455 0.700000
2.500000 0.500000 0.800000
2.490033 0.599335 0.800000
2.460530 0.694709 0.800000
2.412668 0.782321 0.800000
2.348353 0.858678 0.800000
2.270151 0.920735 0.800000
2.181179 0.966020 0.800000
2.084984 0.992725 0.800000
1.985400 0.999787 0.800000
1.886399 0.986924 0.800000
1.791927 0.954649 0.800000
1.705749 0.904248 0.800000
1.631303 0.837732 0.800000
1.571556 0.757751 0.800000
1.528889 0.667494 0.800000
1.505004 0.570560 0.800000
1.500853 0.470813 0.800000
1.516601 0.372229 0.800000
1.551621 0.278740 0.800000
1.604516 0.194071 0.800000
1.673178 0.121599 0.800000
1.754870 0.064212 0.800000
1.846334 0.024199 0.800000
1.943924 0.003154 0.800000
2.043749 0.001918 0.800000
2.141831 0.020538 0.800000
2.234258 0.058273 0.800000
2.317346 0.113618 0.800000
2.387783 0.184367 0.800000
2.442760 0.267699 0.800000
2.480085 0.360292 0.800000
2.498271 0.458455 0.800000
2.500000 0.500000 0.900000
2.490033 0.599335 0.900000
2.460530 0.694709 0.900000
2.412668 0.782321 0.900000
2.348353 0.858678 0.900000
2.270151 0.920735 0.900000
2.181179 0.966020 0.900000
2.084984 0.992725 0.900000
1.985400 0.999787 0.900000
1.886399 0.986924 0.900000
1.791927 0.954649 0.900000
1.705749 0.904248 0.900000
1.631303 0.837732 0.900000
1.571556 0.757751 0.900000
1.528889 0.667494 0.900000
1.505004 0.570560 0.900000
1.500853 0.470813 0.900000
1.516601 0.372229 0.900000
1.551621 0.278740 0.900000
1.604516 0.194071 0.900000
1.673178 0.121599 0.900000
1.754870 0.064212 0.900000
1.846334 0.024199 0.900000
1.943924 0.003154 0.900000
2.043749 0.001918 0.900000
2.141831 0.020538 0.900000
2.234258 0.058273 0.900000
2.317346 0.113618 0.900000
2.387783 0.184367 0.900000
2.442760 0.267699 0.900000
2.480085 0.360292 0.900000
2.498271 0.458455 0.900000
2.500000 0.500000 1.000000
2.490033 0.599335 1.000000
2.460530 0.694709 1.000000
2.412668 0.782321 1.000000
2.348353 0.858678 1.000000
2.270151 0.920735 1.000000
2.181179 0.966020 1.000000
2.084984 0.992725 1.000000
1.985400 0.999787 1.000000
1.886399 0.986924 1.000000
1.791927 0.954649 1.000000
1.705749 0.904248 1.000000
1.631303 0.837732 1.000000
1.571556 0.757751 1.000000
1.528889 0.667494 1.000000
1.505004 0.570560 1.000000
1.500853 0.470813 1.000000
1.516601 0.372229 1.000000
1.551621 0.278740 1.000000
1.604516 0.194071 1.000000
1.673178 0.121599 1.000000
1.754870 0.064212 1.000000
1.846334 0.024199 1.000000
1.943924 0.003154 1.000000
2.043749 0.001918 1.000000
2.141831 0.020538 1.000000
2.234258 0.058273 1.000000
2.317346 0.113618 1.000000
2.387783 0.184367 1.000000
2.442760 0.267699 1.000000
2.480085 0.360292 1.000000
2.498271 0.458455 1.000000
2.500000 0.500000 1.100000
2.490033 0.599335 1.100000
2.460530 0.694709 1.100000
2.412668 0.782321 1.100000
2.348353 0.858678 1.100000
2.270151 0.920735 1.100000
2.181179 0.966020 1.100000
2.084984 0.992725 1.100000
1.985400 0.999787 1.100000
1.886399 0.986924 1.100000
1.791927 0.954649 1.100000
1.705749 0.904248 1.100000
1.631303 0.837732 1.100000
1.571556 0.757751 1.100000
1.528889 0.667494 1.100000
1.505004 0.570560 1.100000
1.500853 0.470813 1.100000
1.516601 0.372229 1.100000
1.551621 0.278740 1.100000
1.604516 0.194071 1.100000
1.673178 0.121599 1.100000
1.754870 0.064212 1.100000
1.846334 0.024199 1.100000
1.943924 0.003154 1.100000
2.043749 0.001918 1.100000
2.141831 0.020538 1.100000
2.234258 0.058273 1.100000
2.317346 0.113618 1.100000
2.387783 0.184367 1.100000
2.442760 0.267699 1.100000
2.480085 0.360292 1.100000
2.498271 0.458455 1.100000
2.500000 0.500000 1.200000
2.490033 0.599335 1.200000
2.460530 0.694709 1.200000
2.412668 0.782321 1.200000
2.348353 0.858678 1.200000
2.270151 0.920735 1.200000
2.181179 0.966020 1.200000
2.084984 0.992725 1.200000
1.985400 0.999787 1.200000
1.886399 0.986924 1.200000
1.791927 0.954649 1.200000
1.705749 0.904248 1.200000
1.631303 0.837732 1.200000
1.571556 0.757751 1.200000
1.528889 0.667494 1.200000
1.505004 0.570560 1.200000
1.500853 0.470813 1.200000
1.516601 0.372229 1.200000
1.551621 0.278740 1.200000
1.604516 0.194071 1.200000
1.673178 0.121599 1.200000
1.754870 0.064212 1.200000
1.846334 0.024199 1.200000
1.943924 0.003154 1.200000
2.043749 0.001918 1.200000
2.141831 0.020538 1.200000
2.234258 0.058273 1.200000
2.317346 0.113618 1.200000
2.387783 0.184367 1.200000
2.442760 0.267699 1.200000
2.480085 0.360292 1.200000
2.498271 0.458455 1.200000
2.500000 0.500000 1.300000
2.490033 0.599335 1.300000
2.460530 0.694709 1.300000
2.412668 0.782321 1.300000
2.348353 0.858678 1.300000
2.270151 0.920735 1.300000
2.181179 0.966020 1.300000
2.084984 0.992725 1.300000
1.985400 0.999787 1.300000
1.886399 0.986924 1.300000
1.791927 0.954649 1.300000
1.705749 0.904248 1.300000
1.631303 0.837732 1.300000
1.571556 0.757751 1.300000
1.528889 0.667494 1.300000
1.505004 0.570560 1.300000
1.500853 0.470813 1.300000
1.516601 0.372229 1.300000
1.551621 0.278740 1.300000
1.604516 0.194071 1.300000
1.673178 0.121599 1.300000
1.754870 0.064212 1.300000
1.846334 0.024199 1.300000
1.943924 0.003154 1.300000
2.043749 0.001918 1.300000
2.141831 0.020538 1.300000
2.234258 0.058273 1.300000
2.317346 0.113618 1.300000
2.387783 0.184367 1.300000
2.442760 0.267699 1.300000
2.480085 0.360292 1.300000
2.498271 0.458455 1.300000
2.500000 0.500000 1.400000
2.490033 0.599335 1.400000
2.460530 0.694709 1.400000
2.412668 0.782321 1.400000
2.348353 0.858678 1.400000
2.270151 0.920735 1.400000
2.181179 0.966020 1.400000
2.084984 0.992725 1.400000
1.985400 0.999787 1.400000
1.886399 0.986924 1.400000
1.791927 0.954649 1.400000
1.705749 0.904248 1.400000
1.631303 0.837732 1.400000
1.571556 0.757751 1.400000
1.528889 0.667494 1.400000
1.505004 0.570560 1.400000
1.500853 0.470813 1.400000
1.516601 0.372229 1.400000
1.551621 0.278740 1.400000
1.604516 0.194071 1.400000
1.673178 0.121599 1.400000
1.754870 0.064212 1.400000
1.846334 0.024199 1.400000
1.943924 0.003154 1.400000
2.043749 0.001918 1.400000
2.141831 0.020538 1.400000
2.234258 0.058273 1.400000
2.317346 0.113618 1.400000
2.387783 0.184367 1.400000
2.442760 0.267699 1.400000
2.480085 0.360292 1.400000
2.498271 0.458455 1.400000
2.500000 0.500000 1.500000
2.490033 0.599335 1.500000
2.460530 0.694709 1.500000
2.412668 0.782321 1.500000
2.348353 0.858678 1.500000
2.270151 0.920735 1.500000
2.181179 0.966020 1.500000
2.084984 0.992725 1.500000
1.985400 0.999787 1.500000
1.886399 0.986924 1.500000
1.791927 0.954649 1.500000
1.705749 0.904248 1.500000
1.631303 0.837732 1.500000
1.571556 0.757751 1.500000
1.528889 0.667494 1.500000
1.505004 0.570560 1.500000
1.500853 0.470813 1.500000
1.516601 0.372229 1.500000
1.551621 0.278740 1.500000
1.604516 0.194071 1.500000
1.673178 0.121599 1.500000
1.754870 0.064212 1.500000
1.846334 0.024199 1.500000
1.943924 0.003154 1.500000
2.043749 0.001918 1.500000
2.141831 0.020538 1.500000
2.234258 0.058273 1.500000
2.317346 0.113618 1.500000
2.387783 0.184367 1.500000
2.442760 0.267699 1.500000
2.480085 0.360292 1.500000
2.498271 0.458455 1.500000
2.500000 0.500000 1.600000
2.490033 0.599335 1.600000
2.460530 0.694709 1.600000
2.412668 0.782321 1.600000
2.348353 0.858678 1.600000
2.270151 0.920735 1.600000
2.181179 0.966020 1.600000
2.084984 0.992725 1.600000
1.985400 0.999787 1.600000
1.886399 0.986924 1.600000
1.791927 0.954649 1.600000
1.705749 0.904248 1.600000
1.631303 0.837732 1.600000
1.571556 0.757751 1.600000
1.528889 0.667494 1.600000
1.505004 0.570560 1.600000
1.500853 0.470813 1.600000
1.516601 0.372229 1.600000
1.551621 0.278740 1.600000
1.604516 0.194071 1.600000
1.673178 0.121599 1.600000
1.754870 0.064212 1.600000
1.846334 0.024199 1.600000
1.943924 0.003154 1.600000
2.043749 0.001918 1.600000
2.141831 0.020538 1.600000
2.234258 0.058273 1.600000
2.317346 0.113618 1.600000
2.387783 0.184367 1.600000
2.442760 0.267699 1.600000
2.480085 0.360292 1.600000
2.498271 0.458455 1.600000
2.500000 0.500000 1.700000
2.490033 0.599335 1.700000
2.460530 0.694709 1.700000
2.412668 0.782321 1.700000
2.348353 0.858678 1.700000
2.270151 0.920735 1.700000
2.181179 0.966020 1.700000
2.084984 0.992725 1.700000
1.985400 0.999787 1.700000
1.886399 0.986924 1.700000
1.791927 0.954649 1.700000
1.705749 0.904248 1.700000
1.631303 0.837732 1.700000
1.571556 0.757751 1.700000
1.528889 0.667494 1.700000
1.505004 0.570560 1.700000
1.500853 0.470813 1.700000
1.516601 0.372229 1.700000
1.551621 0.278740 1.700000
1.604516 0.194071 1.700000
1.673178 0.121599 1.700000
1.754870 0.064212 1.700000
1.846334 0.024199 1.700000
1.943924 0.003154 1.700000
2.043749 0.001918 1.700000
2.141831 0.020538 1.700000
2.234258 0.058273 1.700000
2.317346 0.113618 1.700000
2.387783 0.184367 1.700000
2.442760 0.267699 1.700000
2.480085 0.360292 1.700000
2.498271 0.458455 1.700000
2.500000 0.500000 1.800000
2.490033 0.599335 1.800000
2.460530 0.694709 1.800000
2.412668 0.782321 1.800000
2.348353 0.858678 1.800000
2.270151 0.920735 1.800000
2.181179 0.966020 1.800000
2.084984 0.992725 1.800000
1.985400 0.999787 1.800000
1.886399 0.986924 1.800000
1.791927 0.954649 1.800000
1.705749 0.904248 1.800000
1.631303 0.837732 1.800000
1.571556 0.757751 1.800000
1.528889 0.667494 1.800000
1.505004 0.570560 1.800000
1.500853 0.470813 1.800000
1.516601 0.372229 1.800000
1.551621 0.278740 1.800000
1.604516 0.194071 1.800000
1.673178 0.121599 1.800000
1.754870 0.064212 1.800000
1.846334 0.024199 1.800000
1.943924 0.003154 1.800000
2.043749 0.001918 1.800000
2.141831 0.020538 1.800000
2.234258 0.058273 1.800000
2.317346 0.113618 1.800000
2.387783 0.184367 1.800000
2.442760 0.267699 1.800000
2.480085 0.360292 1.800000
2.498271 0.458455 1.800000
2.500000 0.500000 1.900000
2.490033 0.599335 1.900000
2.460530 0.694709 1.900000
2.412668 0.782321 1.900000
2.348353 0.858678 1.900000
2.270151 0.920735 1.900000
2.181179 0.966020 1.900000
2.084984 0.992725 1.900000
1.985400 0.999787 1.900000
1.886399 0.986924 1.900000
1.791927 0.954649 1.900000
1.705749 0.904248 1.900000
1.631303 0.837732 1.900000
1.571556 0.757751 1.900000
1.528889 0.667494 1.900000
1.505004 0.570560 1.900000
1.500853 0.470813 1.900000
1.516601 0.372229 1.900000
1.551621 0.278740 1.900000
1.604516 0.194071 1.900000
1.673178 0.121599 1.900000
1.754870 0.064212 1.900000
1.846334 0.024199 1.900000
1.943924 0.003154 1.900000
2.043749 0.001918 1.900000
2.141831 0.020538 1.900000
2.234258 0.058273 1.900000
2.317346 0.113618 1.900000
2.387783 0.184367 1.900000
2.442760 0.267699 1.900000
2.480085 0.360292 1.900000
2.498271 0.458455 1.900000
2.500000 0.500000 2.000000
2.490033 0.599335 2.000000
2.460530 0.694709 2.000000
2.412668 0.782321 2.000000
2.348353 0.858678 2.000000
2.270151 0.920735 2.000000
2.181179 0.966020 2.000000
2.084984 0.992725 2.000000
1.985400 0.999787 2.000000
1.886399 0.986924 2.000000
1.791927 0.954649 2.000000
1.705749 0.904248 2.000000
1.631303 0.837732 2.000000
1.571556 0.757751 2.000000
1.528889 0.667494 2.000000
1.505004 0.570560 2.000000
1.500853 0.470813 2.000000
1.516601 0.372229 2.000000
1.551621 0.278740 2.000000
1.604516 0.194071 2.000000
1.673178 0.121599 2.000000
1.754870 0.064212 2.000000
1.846334 0.024199 2.000000
1.943924 0.003154 2.000000
2.043749 0.001918 2.000000
2.141831 0.020538 2.000000
2.234258 0.058273 2.000000
2.317346 0.113618 2.000000
2.387783 0.184367 2.000000
2.442760 0.267699 2.000000
2.480085 0.360292 2.000000
2.498271 0.458455 2.000000
1.500000 0.500000 0.000000
1.600000 0.200000 0.000000
1.600000 0.300000 0.000000
1.600000 0.400000 0.000000
1.600000 0.500000 0.000000
1.600000 0.600000 0.000000
1.600000 0.700000 0.000000
1.600000 0.800000 0.000000
1.700000 0.100000 0.000000
1.700000 0.200000 0.000000
1.700000 0.300000 0.000000
1.700000 0.400000 0.000000
1.700000 0.500000 0.000000
1.700000 0.600000 0.000000
1.700000 0.700000 0.000000
1.700000 0.800000 0.000000
1.700000 0.900000 0.000000
1.800000 0.100000 0.000000
1.800000 0.200000 0.000000
1.800000 0.300000 0.000000
1.800000 0.400000 0.000000
1.800000 0.500000 0.000000
1.800000 0.600000 0.000000
1.800000 0.700000 0.000000
1.800000 0.800000 0.000000
1.800000 0.900000 0.000000
1.900000 0.100000 0.000000
1.900000 0.200000 0.000000
1.900000 0.300000 0.000000
1.900000 0.400000 0.000000
1.900000 0.500000 0.000000
1.900000 0.600000 0.000000
1.900000 0.700000 0.000000
1.900000 0.800000 0.000000
1.900000 0.900000 0.000000
2.000000 0.000000 0.000000
2.000000 0.100000 0.000000
2.000000 0.200000 0.000000
2.000000 0.300000 0.000000
2.000000 0.400000 0.000000
2.000000 0.500000 0.000000
2.000000 0.600000 0.000000
2.000000 0.700000 0.000000
2.000000 0.800000 0.000000
2.000000 0.900000 0.000000
2.000000 1.000000 0.000000
2.100000 0.100000 0.000000
2.100000 0.200000 0.000000
2.100000 0.300000 0.000000
2.100000 0.400000 0.000000
2.100000 0.500000 0.000000
2.100000 0.600000 0.000000
2.100000 0.700000 0.000000
2.100000 0.800000 0.000000
2.100000 0.900000 0.000000
2.200000 0.100000 0.000000
2.200000 0.200000 0.000000
2.200000 0.300000 0.000000
2.200000 0.400000 0.000000
2.200000 0.500000 0.000000
2.200000 0.600000 0.000000
2.200000 0.700000 0.000000
2.200000 0.800000 0.000000
2.200000 0.900000 0.000000
2.300000 0.200000 0.000000
2.300000 0.300000 0.000000
2.300000 0.400000 0.000000
2.300000 0.500000 0.000000
2.300000 0.600000 0.000000
2.300000 0.700000 0.000000
2.300000 0.800000 0.000000
2.400000 0.300000 0.000000
2.400000 0.400000 0.000000
2.400000 0.500000 0.000000
2.400000 0.600000 0.000000
2.400000 0.700000 0.000000
1.500000 0.500000 2.000000
1.600000 0.200000 2.000000
1.600000 0.300000 2.000000
1.600000 0.400000 2.000000
1.600000 0.500000 2.000000
1.600000 0.600000 2.000000
1.600000 0.700000 2.000000
1.600000 0.800000 2.000000
1.700000 0.100000 2.000000
1.700000 0.200000 2.000000
1.700000 0.300000 2.000000
1.700000 0.400000 2.000000
1.700000 0.500000 2.000000
1.700000 0.600000 2.000000
1.700000 0.700000 2.000000
1.700000 0.800000 2.000000
1.700000 0.900000 2.000000
1.800000 0.100000 2.000000
1.800000 0.200000 2.000000
1.800000 0.300000 2.000000
1.800000 0.400000 2.000000
1.800000 0.500000 2.000000
1.800000 0.600000 2.000000
1.800000 0.700000 2.000000
1.800000 0.800000 2.000000
1.800000 0.900000 2.000000
1.900000 0.100000 2.000000
1.900000 0.200000 2.000000
1.900000 0.300000 2.000000
1.900000 0.400000 2.000000
1.900000 0.500000 2.000000
1.900000 0.600000 2.000000
1.900000 0.700000 2.000000
1.900000 0.800000 2.000000
1.900000 0.900000 2.000000
2.000000 0.000000 2.000000
2.000000 0.100000 2.000000
2.000000 0.200000 2.000000
2.000000 0.300000 2.000000
2.000000 0.400000 2.000000
2.000000 0.500000 2.000000
2.000000 0.600000 2.000000
2.000000 0.700000 2.000000
2.000000 0.800000 2.000000
2.000000 0.900000 2.000000
2.000000 1.000000 2.000000
2.100000 0.100000 2.000000
2.100000 0.200000 2.000000
2.100000 0.300000 2.000000
2.100000 0.400000 2.000000
2.100000 0.500000 2.000000
2.100000 0.600000 2.000000
2.100000 0.700000 2.000000
2.100000 0.800000 2.000000
2.100000 0.900000 2.000000
2.200000 0.100000 2.000000
2.200000 0.200000 2.000000
2.200000 0.300000 2.000000
2.200000 0.400000 2.000000
2.200000 0.500000 2.000000
2.200000 0.600000 2.000000
2.200000 0.700000 2.000000
2.200000 0.800000 2.000000
2.200000 0.900000 2.000000
2.300000 0.200000 2.000000
2.300000 0.300000 2.000000
2.300000 0.400000 2.000000
2.300000 0.500000 2.000000
2.300000 0.600000 2.000000
2.300000 0.700000 2.000000
2.300000 0.800000 2.000000
2.400000 0.300000 2.000000
2.400000 0.400000 2.000000
2.400000 0.500000 2.000000
2.400000 0.600000 2.000000
2.400000 0.700000 2.000000
4.500000 -0.500000 0.000000
4.490033 -0.400665 0.000000
4.460530 -0.305291 0.000000
4.412668 -0.217679 0.000000
4.348353 -0.141322 0.000000
4.270151 -0.079265 0.000000
4.181179 -0.033980 0.000000
4.084984 -0.007275 0.000000
3.985400 -0.000213 0.000000
3.886399 -0.013076 0.000000
3.791927 -0.045351 0.000000
3.705749 -0.095752 0.000000
3.631303 -0.162268 0.000000
3.571556 -0.242249 0.000000
3.528889 -0.332506 0.000000
3.505004 -0.429440 0.000000
3.500853 -0.529187 0.000000
3.516601 -0.627771 0.000000
3.551621 -0.721260 0.000000
3.604516 -0.805929 0.000000
3.673178 -0.878401 0.000000
3.754870 -0.935788 0.000000
3.846334 -0.975801 0.000000
3.943924 -0.996846 0.000000
4.043749 -0.998082 0.000000
4.141831 -0.979462 0.000000
4.234258 -0.941727 0.000000
4.317346 -0.886382 0.000000
4.387783 -0.815633 0.000000
4.442760 -0.732301 0.000000
4.480085 -0.639708 0.000000
4.498271 -0.541545 0.000000
4.500000 -0.500000 0.100000
4.490033 -0.400665 0.100000
4.460530 -0.305291 0.100000
4.412668 -0.217679 0.100000
4.348353 -0.141322 0.100000
4.270151 -0.079265 0.100000
4.181179 -0.033980 0.100000
4.084984 -0.007275 0.100000
3.985400 -0.000213 0.100000
3.886399 -0.013076 0.100000
3.791927 -0.045351 0.100000
3.705749 -0.095752 0.100000
3.631303 -0.162268 0.100000
3.571556 -0.242249 0.100000
3.528889 -0.332506 0.100000
3.505004 -0.429440 0.100000
3.500853 -0.529187 0.100000
3.516601 -0.627771 0.100000
3.551621 -0.721260 0.100000
3.604516 -0.805929 0.100000
3.673178 -0.878401 0.100000
3.754870 -0.935788 0.100000
3.846334 -0.975801 0.100000
3.943924 -0.996846 0.100000
4.043749 -0.998082 0.100000
4.141831 -0.979462 0.100000
4.234258 -0.941727 0.100000
4.317346 -0.886382 0.100000
4.387783 -0.815633 0.100000
4.442760 -0.732301 0.100000
4.480085 -0.639708 0.100000
4.498271 -0.541545 0.100000
4.500000 -0.500000 0.200000
4.490033 -0.400665 0.200000
4.460530 -0.305291 0.200000
4.412668 -0.217679 0.200000
4.348353 -0.141322 0.200000
4.270151 -0.079265 0.200000
4.181179 -0.033980 0.200000
4.084984 -0.007275 0.200000
3.985400 -0.000213 0.200000
3.886399 -0.013076 0.200000
3.791927 -0.045351 0.200000
3.705749 -0.095752 0.200000
3.631303 -0.162268 0.200000
3.571556 -0.242249 0.200000
3.528889 -0.332506 0.200000
3.505004 -0.429440 0.200000
3.500853 -0.529187 0.200000
3.516601 -0.627771 0.200000
3.551621 -0.721260 0.200000
3.604516 -0.805929 0.200000
3.673178 -0.878401 0.200000
3.754870 -0.935788 0.200000
3.846334 -0.975801 0.200000
3.943924 -0.996846 0.200000
4.043749 -0.998082 0.200000
4.141831 -0.979462 0.200000
4.234258 -0.941727 0.200000
4.317346 -0.886382 0.200000
4.387783 -0.815633 0.200000
4.442760 -0.732301 0.200000
4.480085 -0.639708 0.200000
4.498271 -0.541545 0.200000
4.500000 -0.500000 0.300000
4.490033 -0.400665 0.300000
4.460530 -0.305291 0.300000
4.412668 -0.217679 0.300000
4.348353 -0.141322 0.300000
4.270151 -0.079265 0.300000
4.181179 -0.033980 0.300000
4.084984 -0.007275 0.300000
3.985400 -0.000213 0.300000
3.886399 -0.013076 0.300000
3.791927 -0.045351 0.300000
3.705749 -0.095752 0.300000
3.631303 -0.162268 0.300000
3.571556 -0.242249 0.300000
3.528889 -0.332506 0.300000
3.505004 -0.429440 0.300000
3.500853 -0.529187 0.300000
3.516601 -0.627771 0.300000
3.551621 -0.721260 0.300000
3.604516 -0.805929 0.300000
3.673178 -0.878401 0.300000
3.754870 -0.935788 0.300000
3.846334 -0.975801 0.300000
3.943924 -0.996846 0.300000
4.043749 -0.998082 0.300000
4.141831 -0.979462 0.300000
4.234258 -0.941727 0.300000
4.317346 -0.886382 0.300000
4.387783 -0.815633 0.300000
4.442760 -0.732301 0.300000
4.480085 -0.639708 0.300000
4.498271 -0.541545 0.300000
4.500000 -0.500000 0.400000
4.490033 -0.400665 0.400000
4.460530 -0.305291 0.400000
4.412668 -0.217679 0.400000
4.348353 -0.141322 0.400000
4.270151 -0.079265 0.400000
4.181179 -0.033980 0.400000
4.084984 -0.007275 0.400000
3.985400 -0.000213 0.400000
3.886399 -0.013076 0.400000
3.791927 -0.045351 0.400000
3.705749 -0.095752 0.400000
3.631303 -0.162268 0.400000
3.571556 -0.242249 0.400000
3.528889 -0.332506 0.400000
3.505004 -0.429440 0.400000
3.500853 -0.529187 0.400000
3.516601 -0.627771 0.400000
3.551621 -0.721260 0.400000
3.604516 -0.805929 0.400000
3.673178 -0.878401 0.400000
3.754870 -0.935788 0.400000
3.846334 -0.975801 0.400000
3.943924 -0.996846 0.400000
4.043749 -0.998082 0.400000
4.141831 -0.979462 0.400000
4.234258 -0.941727 0.400000
4.317346 -0.886382 0.400000
4.387783 -0.815633 0.400000
4.442760 -0.732301 0.400000
4.480085 -0.639708 0.400000
4.498271 -0.541545 0.400000
4.500000 -0.500000 0.500000
4.490033 -0.400665 0.500000
4.460530 -0.305291 0.500000
4.412668 -0.217679 0.500000
4.348353 -0.141322 0.500000
4.270151 -0.079265 0.500000
4.181179 -0.033980 0.500000
4.084984 -0.007275 0.500000
3.985400 -0.000213 0.500000
3.886399 -0.013076 0.500000
3.791927 -0.045351 0.500000
3.705749 -0.095752 0.500000
3.631303 -0.162268 0.500000
3.571556 -0.242249 0.500000
3.528889 -0.332506 0.500000
3.505004 -0.429440 0.500000
3.500853 -0.529187 0.500000
3.516601 -0.627771 0.500000
3.551621 -0.721260 0.500000
3.604516 -0.805929 0.500000
3.673178 -0.878401 0.500000
3.754870 -0.935788 0.500000
3.846334 -0.975801 0.500000
3.943924 -0.996846 0.500000
4.043749 -0.998082 0.500000
4.141831 -0.979462 0.500000
4.234258 -0.941727 0.500000
4.317346 -0.886382 0.500000
4.387783 -0.815633 0.500000
4.442760 -0.732301 0.500000
4.480085 -0.639708 0.500000
4.498271 -0.541545 0.500000
4.500000 -0.500000 0.600000
4.490033 -0.400665 0.600000
4.460530 -0.305291 0.600000
4.412668 -0.217679 0.600000
4.348353 -0.141322 0.600000
4.270151 -0.079265 0.600000
4.181179 -0.033980 0.600000
4.084984 -0.007275 0.600000
3.985400 -0.000213 0.600000
3.886399 -0.013076 0.600000
3.791927 -0.045351 0.600000
3.705749 -0.095752 0.600000
3.631303 -0.162268 0.600000
3.571556 -0.242249 0.600000
3.528889 -0.332506 0.600000
3.505004 -0.429440 0.600000
3.500853 -0.529187 0.600000
3.516601 -0.627771 0.600000
3.551621 -0.721260 0.600000
3.604516 -0.805929 0.600000
3.673178 -0.878401 0.600000
3.754870 -0.935788 0.600000
3.846334 -0.975801 0.600000
3.943924 -0.996846 0.600000
4.043749 -0.998082 0.600000
4.141831 -0.979462 0.600000
4.234258 -0.941727 0.600000
4.317346 -0.886382 0.600000
4.387783 -0.815633 0.600000
4.442760 -0.732301 0.600000
4.480085 -0.639708 0.600000
4.498271 -0.541545 0.600000
4.500000 -0.500000 0.700000
4.490033 -0.400665 0.700000
4.460530 -0.305291 0.700000
4.412668 -0.217679 0.700000
4.348353 -0.141322 0.700000
4.270151 -0.079265 0.700000
4.181179 -0.033980 0.700000
4.084984 -0.007275 0.700000
3.985400 -0.000213 0.700000
3.886399 -0.013076 0.700000
3.791927 -0.045351 0.700000
3.705749 -0.095752 0.700000
3.631303 -0.162268 0.700000
3.571556 -0.242249 0.700000
3.528889 -0.332506 0.700000
3.505004 -0.429440 0.700000
3.500853 -0.529187 0.700000
3.516601 -0.627771 0.700000
3.551621 -0.721260 0.700000
3.604516 -0.805929 0.700000
3.673178 -0.878401 0.700000
3.754870 -0.935788 0.700000
3.846334 -0.975801 0.700000
3.943924 -0.996846 0.700000
4.043749 -0.998082 0.700000
4.141831 -0.979462 0.700000
4.234258 -0.941727 0.700000
4.317346 -0.886382 0.700000
4.387783 -0.815633 0.700000
4.442760 -0.732301 0.700000
4.480085 -0.639708 0.700000
4.498271 -0.541545 0.700000
4.500000 -0.500000 0.800000
4.490033 -0.400665 0.800000
4.460530 -0.305291 0.800000
4.412668 -0.217679 0.800000
4.348353 -0.141322 0.800000
4.270151 -0.079265 0.800000
4.181179 -0.033980 0.800000
4.084984 -0.007275 0.800000
3.985400 -0.000213 0.800000
3.886399 -0.013076 0.800000
3.791927 -0.045351 0.800000
3.705749 -0.095752 0.800000
3.631303 -0.162268 0.800000
3.571556 -0.242249 0.800000
3.528889 -0.332506 0.800000
3.505004 -0.429440 0.800000
3.500853 -0.529187 0.800000
3.516601 -0.627771 0.800000
3.551621 -0.721260 0.800000
3.604516 -0.805929 0.800000
3.673178 -0.878401 0.800000
3.754870 -0.935788 0.800000
3.846334 -0.975801 0.800000
3.943924 -0.996846 0.800000
4.043749 -0.998082 0.800000
4.141831 -0.979462 0.800000
4.234258 -0.941727 0.800000
4.317346 -0.886382 0.800000
4.387783 -0.815633 0.800000
4.442760 -0.732301 0.800000
4.480085 -0.639708 0.800000
4.498271 -0.541545 0.800000
4.500000 -0.500000 0.900000
4.490033 -0.400665 0.900000
4.460530 -0.305291 0.900000
4.412668 -0.217679 0.900000
4.348353 -0.141322 0.900000
4.270151 -0.079265 0.900000
4.181179 -0.033980 0.900000
4.084984 -0.007275 0.900000
3.985400 -0.000213 0.900000
3.886399 -0.013076 0.900000
3.791927 -0.045351 0.900000
3.705749 -0.095752 0.900000
3.631303 -0.162268 0.900000
3.571556 -0.242249 0.900000
3.528889 -0.332506 0.900000
3.505004 -0.429440 0.900000
3.500853 -0.529187 0.900000
3.516601 -0.627771 0.900000
3.551621 -0.721260 0.900000
3.604516 -0.805929 0.900000
3.673178 -0.878401 0.900000
3.754870 -0.935788 0.900000
3.846334 -0.975801 0.900000
3.943924 -0.996846 0.900000
4.043749 -0.998082 0.900000
4.141831 -0.979462 0.900000
4.234258 -0.941727 0.900000
4.317346 -0.886382 0.900000
4.387783 -0.815633 0.900000
4.442760 -0.732301 0.900000
4.480085 -0.639708 0.900000
4.498271 -0.541545 0.900000
4.500000 -0.500000 1.000000
4.490033 -0.400665 1.000000
4.460530 -0.305291 1.000000
4.412668 -0.217679 1.000000
4.348353 -0.141322 1.000000
4.270151 -0.079265 1.000000
4.181179 -0.033980 1.000000
4.084984 -0.007275 1.000000
3.985400 -0.000213 1.000000
3.886399 -0.013076 1.000000
3.791927 -0.045351 1.000000
3.705749 -0.095752 1.000000
3.631303 -0.162268 1.000000
3.571556 -0.242249 1.000000
3.528889 -0.332506 1.000000
3.505004 -0.429440 1.000000
3.500853 -0.529187 1.000000
3.516601 -0.627771 1.000000
3.551621 -0.721260 1.000000
3.604516 -0.805929 1.000000
3.673178 -0.878401 1.000000
3.754870 -0.935788 1.000000
3.846334 -0.975801 1.000000
3.943924 -0.996846 1.000000
4.043749 -0.998082 1.000000
4.141831 -0.979462 1.000000
4.234258 -0.941727 1.000000
4.317346 -0.886382 1.000000
4.387783 -0.815633 1.000000
4.442760 -0.732301 1.000000
4.480085 -0.639708 1.000000
4.498271 -0.541545 1.000000
4.500000 -0.500000 1.100000
4.490033 -0.400665 1.100000
4.460530 -0.305291 1.100000
4.412668 -0.217679 1.100000
4.348353 -0.141322 1.100000
4.270151 -0.079265 1.100000
4.181179 -0.033980 1.100000
4.084984 -0.007275 1.100000
3.985400 -0.000213 1.100000
3.886399 -0.013076 1.100000
3.791927 -0.045351 1.100000
3.705749 -0.095752 1.100000
3.631303 -0.162268 1.100000
3.571556 -0.242249 1.100000
3.528889 -0.332506 1.100000
3.505004 -0.429440 1.100000
3.500853 -0.529187 1.100000
3.516601 -0.627771 1.100000
3.551621 -0.721260 1.100000
3.604516 -0.805929 1.100000
3.673178 -0.878401 1.100000
3.754870 -0.935788 1.100000
3.846334 -0.975801 1.100000
3.943924 -0.996846 1.100000
4.043749 -0.998082 1.100000
4.141831 -0.979462 1.100000
4.234258 -0.941727 1.100000
4.317346 -0.886382 1.100000
4.387783 -0.815633 1.100000
4.442760 -0.732301 1.100000
4.480085 -0.639708 1.100000
4.498271 -0.541545 1.100000
4.500000 -0.500000 1.200000
4.490033 -0.400665 1.200000
4.460530 -0.305291 1.200000
4.412668 -0.217679 1.200000
4.348353 -0.141322 1.200000
4.270151 -0.079265 1.200000
4.181179 -0.033980 1.200000
4.084984 -0.007275 1.200000
3.985400 -0.000213 1.200000
3.886399 -0.013076 1.200000
3.791927 -0.045351 1.200000
3.705749 -0.095752 1.200000
3.631303 -0.162268 1.200000
3.571556 -0.242249 1.200000
3.528889 -0.332506 1.200000
3.505004 -0.429440 1.200000
3.500853 -0.529187 1.200000
3.516601 -0.627771 1.200000
3.551621 -0.721260 1.200000
3.604516 -0.805929 1.200000
3.673178 -0.878401 1.200000
3.754870 -0.935788 1.200000
3.846334 -0.975801 1.200000
3.943924 -0.996846 1.200000
4.043749 -0.998082 1.200000
4.141831 -0.979462 1.200000
4.234258 -0.941727 1.200000
4.317346 -0.886382 1.200000
4.387783 -0.815633 1.200000
4.442760 -0.732301 1.200000
4.480085 -0.639708 1.200000
4.498271 -0.541545 1.200000
4.500000 -0.500000 1.300000
4.490033 -0.400665 1.300000
4.460530 -0.305291 1.300000
4.412668 -0.217679 1.300000
4.348353 -0.141322 1.300000
4.270151 -0.079265 1.300000
4.181179 -0.033980 1.300000
4.084984 -0.007275 1.300000
3.985400 -0.000213 1.300000
3.886399 -0.013076 1.300000
3.791927 -0.045351 1.300000
3.705749 -0.095752 1.300000
3.631303 -0.162268 1.300000
3.571556 -0.242249 1.300000
3.528889 -0.332506 1.300000
3.505004 -0.429440 1.300000
3.500853 -0.529187 1.300000
3.516601 -0.627771 1.300000
3.551621 -0.721260 1.300000
3.604516 -0.805929 1.300000
3.673178 -0.878401 1.300000
3.754870 -0.935788 1.300000
3.846334 -0.975801 1.300000
3.943924 -0.996846 1.300000
4.043749 -0.998082 1.300000
4.141831 -0.979462 1.300000
4.234258 -0.941727 1.300000
4.317346 -0.886382 1.300000
4.387783 -0.815633 1.300000
4.442760 -0.732301 1.300000
4.480085 -0.639708 1.300000
4.498271 -0.541545 1.300000
4.500000 -0.500000 1.400000
4.490033 -0.400665 1.400000
4.460530 -0.305291 1.400000
4.412668 -0.217679 1.400000
4.348353 -0.141322 1.400000
4.270151 -0.079265 1.400000
4.181179 -0.033980 1.400000
4.084984 -0.007275 1.400000
3.985400 -0.000213 1.400000
3.886399 -0.013076 1.400000
3.791927 -0.045351 1.400000
3.705749 -0.095752 1.400000
3.631303 -0.162268 1.400000
3.571556 -0.242249 1.400000
3.528889 -0.332506 1.400000
3.505004 -0.429440 1.400000
3.500853 -0.529187 1.400000
3.516601 -0.627771 1.400000
3.551621 -0.721260 1.400000
3.604516 -0.805929 1.400000
3.673178 -0.878401 1.400000
3.754870 -0.935788 1.400000
3.846334 -0.975801 1.400000
3.943924 -0.996846 1.400000
4.043749 -0.998082 1.400000
4.141831 -0.979462 1.400000
4.234258 -0.941727 1.400000
4.317346 -0.886382 1.400000
4.387783 -0.815633 1.400000
4.442760 -0.732301 1.400000
4.480085 -0.639708 1.400000
4.498271 -0.541545 1.400000
4.500000 -0.500000 1.500000
4.490033 -0.400665 1.500000
4.460530 -0.305291 1.500000
4.412668 -0.217679 1.500000
4.348353 -0.141322 1.500000
4.270151 -0.079265 1.500000
4.181179 -0.033980 1.500000
4.084984 -0.007275 1.500000
3.985400 -0.000213 1.500000
3.886399 -0.013076 1.500000
3.791927 -0.045351 1.500000
3.705749 -0.095752 1.500000
3.631303 -0.162268 1.500000
3.571556 -0.242249 1.500000
3.528889 -0.332506 1.500000
3.505004 -0.429440 1.500000
3.500853 -0.529187 1.500000
3.516601 -0.627771 1.500000
3.551621 -0.721260 1.500000
3.604516 -0.805929 1.500000
3.673178 -0.878401 1.500000
3.754870 -0.935788 1.500000
3.846334 -0.975801 1.500000
3.943924 -0.996846 1.500000
4.043749 -0.998082 1.500000
4.141831 -0.979462 1.500000
4.234258 -0.941727 1.500000
4.317346 -0.886382 1.500000
4.387783 -0.815633 1.500000
4.442760 -0.732301 1.500000
4.480085 -0.639708 1.500000
4.498271 -0.541545 1.500000
4.500000 -0.500000 1.600000
4.490033 -0.400665 1.600000
4.460530 -0.305291 1.600000
4.412668 -0.217679 1.600000
4.348353 -0.141322 1.600000
4.270151 -0.079265 1.600000
4.181179 -0.033980 1.600000
4.084984 -0.007275 1.600000
3.985400 -0.000213 1.600000
3.886399 -0.013076 1.600000
3.791927 -0.045351 1.600000
3.705749 -0.095752 1.600000
3.631303 -0.162268 1.600000
3.571556 -0.242249 1.600000
3.528889 -0.332506 1.600000
3.505004 -0.429440 1.600000
3.500853 -0.529187 1.600000
3.516601 -0.627771 1.600000
3.551621 -0.721260 1.600000
3.604516 -0.805929 1.600000
3.673178 -0.878401 1.600000
3.754870 -0.935788 1.600000
3.846334 -0.975801 1.600000
3.943924 -0.996846 1.600000
4.043749 -0.998082 1.600000
4.141831 -0.979462 1.600000
4.234258 -0.941727 1.600000
4.317346 -0.886382 1.600000
4.387783 -0.815633 1.600000
4.442760 -0.732301 1.600000
4.480085 -0.639708 1.600000
4.498271 -0.541545 1.600000
4.500000 -0.500000 1.700000
4.490033 -0.400665 1.700000
4.460530 -0.305291 1.700000
4.412668 -0.217679 1.700000
4.348353 -0.141322 1.700000
4.270151 -0.079265 1.700000
4.181179 -0.033980 1.700000
4.084984 -0.007275 1.700000
3.985400 -0.000213 1.700000
3.886399 -0.013076 1.700000
3.791927 -0.045351 1.700000
3.705749 -0.095752 1.700000
3.631303 -0.162268 1.700000
3.571556 -0.242249 1.700000
3.528889 -0.332506 1.700000
3.505004 -0.429440 1.700000
3.500853 -0.529187 1.700000
3.516601 -0.627771 1.700000
3.551621 -0.721260 1.700000
3.604516 -0.805929 1.700000
3.673178 -0.878401 1.700000
3.754870 -0.935788 1.700000
3.846334 -0.975801 1.700000
3.943924 -0.996846 1.700000
4.043749 -0.998082 1.700000
4.141831 -0.979462 1.700000
4.234258 -0.941727 1.700000
4.317346 -0.886382 1.700000
4.387783 -0.815633 1.700000
4.442760 -0.732301 1.700000
4.480085 -0.639708 1.700000
4.498271 -0.541545 1.700000
4.500000 -0.500000 1.800000
4.490033 -0.400665 1.800000
4.460530 -0.305291 1.800000
4.412668 -0.217679 1.800000
4.348353 -0.141322 1.800000
4.270151 -0.079265 1.800000
4.181179 -0.033980 1.800000
4.084984 -0.007275 1.800000
3.985400 -0.000213 1.800000
3.886399 -0.013076 1.800000
3.791927 -0.045351 1.800000
3.705749 -0.095752 1.800000
3.631303 -0.162268 1.800000
3.571556 -0.242249 1.800000
3.528889 -0.332506 1.800000
3.505004 -0.429440 1.800000
3.500853 -0.529187 1.800000
3.516601 -0.627771 1.800000
3.551621 -0.721260 1.800000
3.604516 -0.805929 1.800000
3.673178 -0.878401 1.800000
3.754870 -0.935788 1.800000
3.846334 -0.975801 1.800000
3.943924 -0.996846 1.800000
4.043749 -0.998082 1.800000
4.141831 -0.979462 1.800000
4.234258 -0.941727 1.800000
4.317346 -0.886382 1.800000
4.387783 -0.815633 1.800000
4.442760 -0.732301 1.800000
4.480085 -0.639708 1.800000
4.498271 -0.541545 1.800000
4.500000 -0.500000 1.900000
4.490033 -0.400665 1.900000
4.460530 -0.305291 1.900000
4.412668 -0.217679 1.900000
4.348353 -0.141322 1.900000
4.270151 -0.079265 1.900000
4.181179 -0.033980 1.900000
4.084984 -0.007275 1.900000
3.985400 -0.000213 1.900000
3.886399 -0.013076 1.900000
3.791927 -0.045351 1.900000
3.705749 -0.095752 1.900000
3.631303 -0.162268 1.900000
3.571556 -0.242249 1.900000
3.528889 -0.332506 1.900000
3.505004 -0.429440 1.900000
3.500853 -0.529187 1.900000
3.516601 -0.627771 1.900000
3.551621 -0.721260 1.900000
3.604516 -0.805929 1.900000
3.673178 -0.878401 1.900000
3.754870 -0.935788 1.900000
3.846334 -0.975801 1.900000
3.943924 -0.996846 1.900000
4.043749 -0.998082 1.900000
4.141831 -0.979462 1.900000
4.234258 -0.941727 1.900000
4.317346 -0.886382 1.900000
4.387783 -0.815633 1.900000
4.442760 -0.732301 1.900000
4.480085 -0.639708 1.900000
4.498271 -0.541545 1.900000
4.500000 -0.500000 2.000000
4.490033 -0.400665 2.000000
4.460530 -0.305291 2.000000
4.412668 -0.217679 2.000000
4.348353 -0.141322 2.000000
4.270151 -0.079265 2.000000
4.181179 -0.033980 2.000000
4.084984 -0.007275 2.000000
3.985400 -0.000213 2.000000
3.886399 -0.013076 2.000000
3.791927 -0.045351 2.000000
3.705749 -0.095752 2.000000
3.631303 -0.162268 2.000000
3.571556 -0.242249 2.000000
3.528889 -0.332506 2.000000
3.505004 -0.429440 2.000000
3.500853 -0.529187 2.000000
3.516601 -0.627771 2.000000
3.551621 -0.721260 2.000000
3.604516 -0.805929 2.000000
3.673178 -0.878401 2.000000
3.754870 -0.935788 2.000000
3.846334 -0.975801 2.000000
3.943924 -0.996846 2.000000
4.043749 -0.998082 2.000000
4.141831 -0.979462 2.000000
4.234258 -0.941727 2.000000
4.317346 -0.886382 2.000000
4.387783 -0.815633 2.000000
4.442760 -0.732301 2.000000
4.480085 -0.639708 2.000000
4.498271 -0.541545 2.000000
3.500000 -0.500000 0.000000
3.600000 -0.800000 0.000000
3.600000 -0.700000 0.000000
3.600000 -0.600000 0.000000
3.600000 -0.500000 0.000000
3.600000 -0.400000 0.000000
3.600000 -0.300000 0.000000
3.600000 -0.200000 0.000000
3.700000 -0.900000 0.000000
3.700000 -0.800000 0.000000
3.700000 -0.700000 0.000000
3.700000 -0.600000 0.000000
3.700000 -0.500000 0.000000
3.700000 -0.400000 0.000000
3.700000 -0.300000 0.000000
3.700000 -0.200000 0.000000
3.700000 -0.100000 0.000000
3.800000 -0.900000 0.000000
3.800000 -0.800000 0.000000
3.800000 -0.700000 0.000000
3.800000 -0.600000 0.000000
3.800000 -0.500000 0.000000
3.800000 -0.400000 0.000000
3.800000 -0.300000 0.000000
3.800000 -0.200000 0.000000
3.800000 -0.100000 0.000000
3.900000 -0.900000 0.000000
3.900000 -0.800000 0.000000
3.900000 -0.700000 0.000000
3.900000 -0.600000 0.000000
3.900000 -0.500000 0.000000
3.900000 -0.400000 0.000000
3.900000 -0.300000 0.000000
3.900000 -0.200000 0.000000
3.900000 -0.100000 0.000000
4.000000 -1.000000 0.000000
4.000000 -0.900000 0.000000
4.000000 -0.800000 0.000000
4.000000 -0.700000 0.000000
4.000000 -0.600000 0.000000
4.000000 -0.500000 0.000000
4.000000 -0.400000 0.000000
4.000000 -0.300000 0.000000
4.000000 -0.200000 0.000000
4.000000 -0.100000 0.000000
4.000000 -0.000000 0.000000
4.100000 -0.900000 0.000000
4.100000 -0.800000 0.000000
4.100000 -0.700000 0.000000
4.100000 -0.600000 0.000000
4.100000 -0.500000 0.000000
4.100000 -0.400000 0.000000
4.100000 -0.300000 0.000000
4.100000 -0.200000 0.000000
4.100000 -0.100000 0.000000
4.200000 -0.900000 0.000000
4.200000 -0.800000 0.000000
4.200000 -0.700000 0.000000
4.200000 -0.600000 0.000000
4.200000 -0.500000 0.000000
4.200000 -0.400000 0.000000
4.200000 -0.300000 0.000000
4.200000 -0.200000 0.000000
4.200000 -0.100000 0.000000
4.300000 -0.800000 0.000000
4.300000 -0.700000 0.000000
4.300000 -0.600000 0.000000
4.300000 -0.500000 0.000000
4.300000 -0.400000 0.000000
4.300000 -0.300000 0.000000
4.300000 -0.200000 0.000000
4.400000 -0.700000 0.000000
4.400000 -0.600000 0.000000
4.400000 -0.500000 0.000000
4.400000 -0.400000 0.000000
4.400000 -0.300000 0.000000
3.500000 -0.500000 2.000000
3.600000 -0.800000 2.000000
3.600000 -0.700000 2.000000
3.600000 -0.600000 2.000000
3.600000 -0.500000 2.000000
3.600000 -0.400000 2.000000
3.600000 -0.300000 2.000000
3.600000 -0.200000 2.000000
3.700000 -0.900000 2.000000
3.700000 -0.800000 2.000000
3.700000 -0.700000 2.000000
3.700000 -0.600000 2.000000
3.700000 -0.500000 2.000000
3.700000 -0.400000 2.000000
3.700000 -0.300000 2.000000
3.700000 -0.200000 2.000000
3.700000 -0.100000 2.000000
3.800000 -0.900000 2.000000
3.800000 -0.800000 2.000000
3.800000 -0.700000 2.000000
3.800000 -0.600000 2.000000
3.800000 -0.500000 2.000000
3.800000 -0.400000 2.000000
3.800000 -0.300000 2.000000
3.800000 -0.200000 2.000000
3.800000 -0.100000 2.000000
3.900000 -0.900000 2.000000
3.900000 -0.800000 2.000000
3.900000 -0.700000 2.000000
3.900000 -0.600000 2.000000
3.900000 -0.500000 2.000000
3.900000 -0.400000 2.000000
3.900000 -0.300000 2.000000
3.900000 -0.200000 2.000000
3.900000 -0.100000 2.000000
4.000000 -1.000000 2.000000
4.000000 -0.900000 2.000000
4.000000 -0.800000 2.000000
4.000000 -0.700000 2.000000
4.000000 -0.600000 2.000000
4.000000 -0.500000 2.000000
4.000000 -0.400000 2.000000
4.000000 -0.300000 2.000000
4.000000 -0.200000 2.000000
4.000000 -0.100000 2.000000
4.000000 -0.000000 2.000000
4.100000 -0.900000 2.000000
4.100000 -0.800000 2.000000
4.100000 -0.700000 2.000000
4.100000 -0.600000 2.000000
4.100000 -0.500000 2.000000
4.100000 -0.400000 2.000000
4.100000 -0.300000 2.000000
4.100000 -0.200000 2.000000
4.100000 -0.100000 2.000000
4.200000 -0.900000 2.000000
4.200000 -0.800000 2.000000
4.200000 -0.700000 2.000000
4.200000 -0.600000 2.000000
4.200000 -0.500000 2.000000
4.200000 -0.400000 2.000000
4.200000 -0.300000 2.000000
4.200000 -0.200000 2.000000
4.200000 -0.100000 2.000000
4.300000 -0.800000 2.000000
4.300000 -0.700000 2.000000
4.300000 -0.600000 2.000000
4.300000 -0.500000 2.000000
4.300000 -0.400000 2.000000
4.300000 -0.300000 2.000000
4.300000 -0.200000 2.000000
4.400000 -0.700000 2.000000
4.400000 -0.600000 2.000000
4.400000 -0.500000 2.000000
4.400000 -0.400000 2.000000
4.400000 -0.300000 2.000000
